<svg xmlns="http://www.w3.org/2000/svg" xmlns:xlink="http://www.w3.org/1999/xlink" width="823" height="659" viewBox="0 0 823 659"><defs><clipPath id="a"><rect width="823" height="659" transform="translate(6)" fill="#f8f8f8" stroke="#707070" stroke-width="1"/></clipPath></defs><g transform="translate(-6)" clip-path="url(#a)" style="isolation:isolate"><g transform="translate(-2303.428 -1479.642)"><g transform="translate(0 0)"><g transform="translate(0 75.336)" opacity="0.5"><g transform="translate(0 0)" opacity="0.7"><path d="M108.3,0,0,.061Z" transform="translate(3721.996 2582.888) rotate(135)" fill="#f8f8f8" fill-rule="evenodd"/><path d="M0,3348.594l108.3-.061L110.182,0,1.886.061Z" transform="translate(3261.858 2440.304) rotate(135)" fill="#b49a85" fill-rule="evenodd"/><path d="M0,3539.2l108.3-.061L110.29,0,1.993.062Z" transform="translate(2580.576 2614.128) rotate(135)" fill="#f8f8f8" fill-rule="evenodd"/><path d="M0,3766.618l108.3-.06L110.418,0,2.121.061Z" transform="translate(3263.038 2692.542) rotate(135)" fill="#080b14" fill-rule="evenodd"/><path d="M0,3398.377l49.816-.028L51.73,0,1.914.028Z" transform="translate(3446.878 2509.748) rotate(135)" fill="#50b6ff" fill-rule="evenodd"/><path d="M0,3539.163l49.816-.028L51.809,0,1.993.028Z" transform="translate(2958.752 2590.923) rotate(135)" fill="#f8f8f8" fill-rule="evenodd"/><path d="M0,3478.517l49.816-.028L51.775,0,1.959.028Z" transform="translate(2820.468 2567.39) rotate(135)" fill="#f8f8f8" fill-rule="evenodd"/><path d="M0,3573.817l49.816-.028L51.829,0,2.012.028Z" transform="translate(2637.612 2527.07) rotate(135)" fill="#f8f8f8" fill-rule="evenodd"/></g></g><g transform="translate(1082.749)"><g transform="translate(0)"><path d="M0,0,108.3.061l1.886,3348.533-108.3-.061Z" transform="translate(2368.993 43.35) rotate(45)" fill="#f8f8f8" fill-rule="evenodd"/><path d="M0,0,108.3.061l1.886,3348.533-108.3-.061Z" transform="translate(3273.022 912.969) rotate(45)" fill="#f8f8f8" fill-rule="evenodd" opacity="0.66"/><path d="M0,0,108.3.061l2.121,3766.557-108.3-.061Z" transform="translate(2663.401 0) rotate(45)" fill="#fc5850" fill-rule="evenodd"/><path d="M0,0,108.3.061l2.121,3766.557-108.3-.061Z" transform="translate(3567.43 869.619) rotate(45)" fill="#f8f8f8" fill-rule="evenodd" opacity="0.66"/><path d="M0,0,49.816.029,51.81,3539.163l-49.816-.028Z" transform="translate(2806.852 59.216) rotate(45)" fill="#febf00" fill-rule="evenodd"/><path d="M0,0,49.816.029,51.81,3539.163l-49.816-.028Z" transform="translate(3710.881 928.835) rotate(45)" fill="#f8f8f8" fill-rule="evenodd" opacity="0.66"/></g></g></g></g></g></svg>