<svg xmlns="http://www.w3.org/2000/svg" xmlns:xlink="http://www.w3.org/1999/xlink" width="1680" height="11" viewBox="0 0 1680 11">
  <defs>
    <clipPath id="clip-path">
      <path id="Path_882" data-name="Path 882" d="M0,0H1680V11H0Z" fill="#fff"/>
    </clipPath>
  </defs>
  <g id="Mask_Group_14" data-name="Mask Group 14" clip-path="url(#clip-path)">
    <g id="assets" transform="translate(-17.481 -84.123)">
      <g id="pattern-style1">
        <rect id="Mask" width="1038" height="434" fill="#414a6b"/>
        <g id="diagonal-45-style1" opacity="0.5">
          <g id="Rectangle" transform="translate(370 -87) rotate(180)" opacity="0.7">
            <path id="Path_134" data-name="Path 134" d="M-2.682,135.789l25.914-.015.479-850.5-25.914.015Z" transform="translate(207.763 -77.347) rotate(-45)" fill="#ff5850" fill-rule="evenodd"/>
            <path id="Path_135" data-name="Path 135" d="M90.358,127.553l25.914-.015.451-801.261-25.914.015Z" transform="translate(223.426 -6.77) rotate(-45)" fill="#b49a85" fill-rule="evenodd"/>
            <path id="Path_136" data-name="Path 136" d="M269.5,124.88l25.914-.015L295.893-722l-25.914.015Z" transform="translate(293.914 112.45) rotate(-45)" fill="#b49a85" fill-rule="evenodd"/>
            <path id="Path_137" data-name="Path 137" d="M125.433,152.555l25.914-.015.508-901.289-25.914.015Z" transform="translate(251.393 10.725) rotate(-45)" fill="#50b6ff" fill-rule="evenodd"/>
            <path id="Path_138" data-name="Path 138" d="M52.345,126.049l11.92-.007.458-813.181-11.92.007Z" transform="translate(215.519 -40.779) rotate(-45)" fill="#f3c130" fill-rule="evenodd"/>
            <path id="Path_139" data-name="Path 139" d="M181.056,135.373l11.92-.007.477-846.869-11.92.007Z" transform="translate(258.537 48.036) rotate(-45)" fill="#ff5850" fill-rule="evenodd"/>
            <path id="Path_140" data-name="Path 140" d="M209.016,128.62l11.92-.007.469-832.357-11.92.007Z" transform="translate(266.369 67.952) rotate(-45)" fill="#f3c02f" fill-rule="evenodd"/>
            <path id="Path_141" data-name="Path 141" d="M260.831,157.729l11.92-.007.482-855.162-11.92.007Z" transform="translate(269.027 109.781) rotate(-45)" fill="#23db95" fill-rule="evenodd"/>
          </g>
        </g>
        <g id="diagonal-45-style1-2" data-name="diagonal-45-style1" opacity="0.5">
          <g id="Rectangle-2" data-name="Rectangle" transform="translate(720 -120) rotate(180)" opacity="0.7">
            <path id="Path_142" data-name="Path 142" d="M-2.682,135.789l25.914-.015.479-850.5-25.914.015Z" transform="translate(207.763 -77.347) rotate(-45)" fill="#ff5850" fill-rule="evenodd"/>
            <path id="Path_143" data-name="Path 143" d="M90.358,127.553l25.914-.015.451-801.261-25.914.015Z" transform="translate(223.426 -6.77) rotate(-45)" fill="#b49a85" fill-rule="evenodd"/>
            <path id="Path_144" data-name="Path 144" d="M269.5,124.88l25.914-.015L295.893-722l-25.914.015Z" transform="translate(293.914 112.45) rotate(-45)" fill="#b49a85" fill-rule="evenodd"/>
            <path id="Path_145" data-name="Path 145" d="M125.433,152.555l25.914-.015.508-901.289-25.914.015Z" transform="translate(251.393 10.725) rotate(-45)" fill="#50b6ff" fill-rule="evenodd"/>
            <path id="Path_146" data-name="Path 146" d="M52.345,126.049l11.92-.007.458-813.181-11.92.007Z" transform="translate(215.519 -40.779) rotate(-45)" fill="#f3c130" fill-rule="evenodd"/>
            <path id="Path_147" data-name="Path 147" d="M181.056,135.373l11.92-.007.477-846.869-11.92.007Z" transform="translate(258.537 48.036) rotate(-45)" fill="#ff5850" fill-rule="evenodd"/>
            <path id="Path_148" data-name="Path 148" d="M209.016,128.62l11.92-.007.469-832.357-11.92.007Z" transform="translate(266.369 67.952) rotate(-45)" fill="#f3c02f" fill-rule="evenodd"/>
            <path id="Path_149" data-name="Path 149" d="M260.831,157.729l11.92-.007.482-855.162-11.92.007Z" transform="translate(269.027 109.781) rotate(-45)" fill="#23db95" fill-rule="evenodd"/>
          </g>
        </g>
        <g id="diagonal-45-style1-3" data-name="diagonal-45-style1" opacity="0.5">
          <g id="Rectangle-3" data-name="Rectangle" transform="translate(1098 -120) rotate(180)" opacity="0.7">
            <path id="Path_150" data-name="Path 150" d="M-2.682,135.789l25.914-.015.479-850.5-25.914.015Z" transform="translate(207.763 -77.347) rotate(-45)" fill="#ff5850" fill-rule="evenodd"/>
            <path id="Path_151" data-name="Path 151" d="M90.358,127.553l25.914-.015.451-801.261-25.914.015Z" transform="translate(223.426 -6.77) rotate(-45)" fill="#b49a85" fill-rule="evenodd"/>
            <path id="Path_152" data-name="Path 152" d="M269.5,124.88l25.914-.015L295.893-722l-25.914.015Z" transform="translate(293.914 112.45) rotate(-45)" fill="#b49a85" fill-rule="evenodd"/>
            <path id="Path_153" data-name="Path 153" d="M125.433,152.555l25.914-.015.508-901.289-25.914.015Z" transform="translate(251.393 10.725) rotate(-45)" fill="#50b6ff" fill-rule="evenodd"/>
            <path id="Path_154" data-name="Path 154" d="M52.345,126.049l11.92-.007.458-813.181-11.92.007Z" transform="translate(215.519 -40.779) rotate(-45)" fill="#f3c130" fill-rule="evenodd"/>
            <path id="Path_155" data-name="Path 155" d="M181.056,135.373l11.92-.007.477-846.869-11.92.007Z" transform="translate(258.537 48.036) rotate(-45)" fill="#ff5850" fill-rule="evenodd"/>
            <path id="Path_156" data-name="Path 156" d="M209.016,128.62l11.92-.007.469-832.357-11.92.007Z" transform="translate(266.369 67.952) rotate(-45)" fill="#f3c02f" fill-rule="evenodd"/>
            <path id="Path_157" data-name="Path 157" d="M260.831,157.729l11.92-.007.482-855.162-11.92.007Z" transform="translate(269.027 109.781) rotate(-45)" fill="#23db95" fill-rule="evenodd"/>
          </g>
        </g>
        <g id="diagonal-45-style1-4" data-name="diagonal-45-style1" opacity="0.5">
          <g id="Rectangle-4" data-name="Rectangle" transform="translate(1460 -120) rotate(180)" opacity="0.7">
            <path id="Path_158" data-name="Path 158" d="M-2.682,135.789l25.914-.015.479-850.5-25.914.015Z" transform="translate(207.763 -77.347) rotate(-45)" fill="#ff5850" fill-rule="evenodd"/>
            <path id="Path_159" data-name="Path 159" d="M90.358,127.553l25.914-.015.451-801.261-25.914.015Z" transform="translate(223.426 -6.77) rotate(-45)" fill="#b49a85" fill-rule="evenodd"/>
            <path id="Path_160" data-name="Path 160" d="M269.5,124.88l25.914-.015L295.893-722l-25.914.015Z" transform="translate(293.914 112.45) rotate(-45)" fill="#b49a85" fill-rule="evenodd"/>
            <path id="Path_161" data-name="Path 161" d="M125.433,152.555l25.914-.015.508-901.289-25.914.015Z" transform="translate(251.393 10.725) rotate(-45)" fill="#50b6ff" fill-rule="evenodd"/>
            <path id="Path_162" data-name="Path 162" d="M52.345,126.049l11.92-.007.458-813.181-11.92.007Z" transform="translate(215.519 -40.779) rotate(-45)" fill="#f3c130" fill-rule="evenodd"/>
            <path id="Path_163" data-name="Path 163" d="M181.056,135.373l11.92-.007.477-846.869-11.92.007Z" transform="translate(258.537 48.036) rotate(-45)" fill="#ff5850" fill-rule="evenodd"/>
            <path id="Path_164" data-name="Path 164" d="M209.016,128.62l11.92-.007.469-832.357-11.92.007Z" transform="translate(266.369 67.952) rotate(-45)" fill="#f3c02f" fill-rule="evenodd"/>
            <path id="Path_165" data-name="Path 165" d="M260.831,157.729l11.92-.007.482-855.162-11.92.007Z" transform="translate(269.027 109.781) rotate(-45)" fill="#23db95" fill-rule="evenodd"/>
          </g>
        </g>
        <g id="diagonal-45-style1-5" data-name="diagonal-45-style1" opacity="0.7">
          <g id="Rectangle-5" data-name="Rectangle" transform="translate(-121 -112)">
            <path id="Path_166" data-name="Path 166" d="M-2.682-135.788l25.914.015.479,850.493L-2.2,714.705Z" transform="translate(207.763 77.347) rotate(45)" fill="#ff5850" fill-rule="evenodd"/>
            <path id="Path_167" data-name="Path 167" d="M90.358-127.552l25.914.015.451,801.257L90.809,673.7Z" transform="translate(223.426 6.77) rotate(45)" fill="#b49a85" fill-rule="evenodd"/>
            <path id="Path_168" data-name="Path 168" d="M269.5-124.879l25.914.015L295.892,722l-25.914-.015Z" transform="translate(293.914 -112.45) rotate(45)" fill="#b49a85" fill-rule="evenodd"/>
            <path id="Path_169" data-name="Path 169" d="M125.432-152.554l25.914.015.508,901.285-25.914-.015Z" transform="translate(251.393 -10.725) rotate(45)" fill="#50b6ff" fill-rule="evenodd"/>
            <path id="Path_170" data-name="Path 170" d="M52.345-126.048l11.92.007.458,813.177-11.92-.007Z" transform="translate(215.519 40.779) rotate(45)" fill="#f3c130" fill-rule="evenodd"/>
            <path id="Path_171" data-name="Path 171" d="M181.055-135.372l11.92.007.477,846.866-11.92-.007Z" transform="translate(258.537 -48.036) rotate(45)" fill="#ff5850" fill-rule="evenodd"/>
            <path id="Path_172" data-name="Path 172" d="M209.015-128.62l11.92.007.469,832.354-11.92-.007Z" transform="translate(266.369 -67.952) rotate(45)" fill="#f3c02f" fill-rule="evenodd"/>
            <path id="Path_173" data-name="Path 173" d="M260.83-157.728l11.92.007.482,855.158-11.92-.007Z" transform="translate(269.027 -109.781) rotate(45)" fill="#23db95" fill-rule="evenodd"/>
          </g>
        </g>
        <g id="diagonal-45-style1-6" data-name="diagonal-45-style1" opacity="0.7">
          <g id="Rectangle-6" data-name="Rectangle" transform="translate(227 -112)">
            <path id="Path_174" data-name="Path 174" d="M-2.682-135.788l25.914.015.479,850.493L-2.2,714.705Z" transform="translate(207.763 77.347) rotate(45)" fill="#ff5850" fill-rule="evenodd"/>
            <path id="Path_175" data-name="Path 175" d="M90.358-127.552l25.914.015.451,801.257L90.809,673.7Z" transform="translate(223.426 6.77) rotate(45)" fill="#b49a85" fill-rule="evenodd"/>
            <path id="Path_176" data-name="Path 176" d="M269.5-124.879l25.914.015L295.892,722l-25.914-.015Z" transform="translate(293.914 -112.45) rotate(45)" fill="#b49a85" fill-rule="evenodd"/>
            <path id="Path_177" data-name="Path 177" d="M125.432-152.554l25.914.015.508,901.285-25.914-.015Z" transform="translate(251.393 -10.725) rotate(45)" fill="#50b6ff" fill-rule="evenodd"/>
            <path id="Path_178" data-name="Path 178" d="M52.345-126.048l11.92.007.458,813.177-11.92-.007Z" transform="translate(215.519 40.779) rotate(45)" fill="#f3c130" fill-rule="evenodd"/>
            <path id="Path_179" data-name="Path 179" d="M181.055-135.372l11.92.007.477,846.866-11.92-.007Z" transform="translate(258.537 -48.036) rotate(45)" fill="#ff5850" fill-rule="evenodd"/>
            <path id="Path_180" data-name="Path 180" d="M209.015-128.62l11.92.007.469,832.354-11.92-.007Z" transform="translate(266.369 -67.952) rotate(45)" fill="#f3c02f" fill-rule="evenodd"/>
            <path id="Path_181" data-name="Path 181" d="M260.83-157.728l11.92.007.482,855.158-11.92-.007Z" transform="translate(269.027 -109.781) rotate(45)" fill="#23db95" fill-rule="evenodd"/>
          </g>
        </g>
        <g id="diagonal-45-style1-7" data-name="diagonal-45-style1" opacity="0.7">
          <g id="Rectangle-7" data-name="Rectangle" transform="translate(548 -94)">
            <path id="Path_182" data-name="Path 182" d="M-2.682-135.788l25.914.015.479,850.493L-2.2,714.705Z" transform="translate(207.763 77.347) rotate(45)" fill="#ff5850" fill-rule="evenodd"/>
            <path id="Path_183" data-name="Path 183" d="M90.358-127.552l25.914.015.451,801.257L90.809,673.7Z" transform="translate(223.426 6.77) rotate(45)" fill="#b49a85" fill-rule="evenodd"/>
            <path id="Path_184" data-name="Path 184" d="M269.5-124.879l25.914.015L295.892,722l-25.914-.015Z" transform="translate(293.914 -112.45) rotate(45)" fill="#b49a85" fill-rule="evenodd"/>
            <path id="Path_185" data-name="Path 185" d="M125.432-152.554l25.914.015.508,901.285-25.914-.015Z" transform="translate(251.393 -10.725) rotate(45)" fill="#50b6ff" fill-rule="evenodd"/>
            <path id="Path_186" data-name="Path 186" d="M52.345-126.048l11.92.007.458,813.177-11.92-.007Z" transform="translate(215.519 40.779) rotate(45)" fill="#f3c130" fill-rule="evenodd"/>
            <path id="Path_187" data-name="Path 187" d="M181.055-135.372l11.92.007.477,846.866-11.92-.007Z" transform="translate(258.537 -48.036) rotate(45)" fill="#ff5850" fill-rule="evenodd"/>
            <path id="Path_188" data-name="Path 188" d="M209.015-128.62l11.92.007.469,832.354-11.92-.007Z" transform="translate(266.369 -67.952) rotate(45)" fill="#f3c02f" fill-rule="evenodd"/>
            <path id="Path_189" data-name="Path 189" d="M260.83-157.728l11.92.007.482,855.158-11.92-.007Z" transform="translate(269.027 -109.781) rotate(45)" fill="#23db95" fill-rule="evenodd"/>
          </g>
        </g>
        <g id="diagonal-45-style1-8" data-name="diagonal-45-style1" opacity="0.7">
          <g id="Rectangle-8" data-name="Rectangle" transform="translate(897 -87)">
            <path id="Path_190" data-name="Path 190" d="M-2.682-135.788l25.914.015.479,850.493L-2.2,714.705Z" transform="translate(207.763 77.347) rotate(45)" fill="#ff5850" fill-rule="evenodd"/>
            <path id="Path_191" data-name="Path 191" d="M90.358-127.552l25.914.015.451,801.257L90.809,673.7Z" transform="translate(223.426 6.77) rotate(45)" fill="#b49a85" fill-rule="evenodd"/>
            <path id="Path_192" data-name="Path 192" d="M269.5-124.879l25.914.015L295.892,722l-25.914-.015Z" transform="translate(293.914 -112.45) rotate(45)" fill="#b49a85" fill-rule="evenodd"/>
            <path id="Path_193" data-name="Path 193" d="M125.432-152.554l25.914.015.508,901.285-25.914-.015Z" transform="translate(251.393 -10.725) rotate(45)" fill="#50b6ff" fill-rule="evenodd"/>
            <path id="Path_194" data-name="Path 194" d="M52.345-126.048l11.92.007.458,813.177-11.92-.007Z" transform="translate(215.519 40.779) rotate(45)" fill="#f3c130" fill-rule="evenodd"/>
            <path id="Path_195" data-name="Path 195" d="M181.055-135.372l11.92.007.477,846.866-11.92-.007Z" transform="translate(258.537 -48.036) rotate(45)" fill="#ff5850" fill-rule="evenodd"/>
            <path id="Path_196" data-name="Path 196" d="M209.015-128.62l11.92.007.469,832.354-11.92-.007Z" transform="translate(266.369 -67.952) rotate(45)" fill="#f3c02f" fill-rule="evenodd"/>
            <path id="Path_197" data-name="Path 197" d="M260.83-157.728l11.92.007.482,855.158-11.92-.007Z" transform="translate(269.027 -109.781) rotate(45)" fill="#23db95" fill-rule="evenodd"/>
          </g>
        </g>
      </g>
    </g>
    <g id="assets-2" data-name="assets" transform="translate(1025.519 -84.123)">
      <g id="pattern-style1-2" data-name="pattern-style1">
        <rect id="Mask-2" data-name="Mask" width="1038" height="434" transform="translate(-5)" fill="#414a6b"/>
        <g id="diagonal-45-style1-9" data-name="diagonal-45-style1" opacity="0.5">
          <g id="Rectangle-9" data-name="Rectangle" transform="translate(370 -87) rotate(180)" opacity="0.7">
            <path id="Path_134-2" data-name="Path 134" d="M-2.682,135.789l25.914-.015.479-850.5-25.914.015Z" transform="translate(207.763 -77.347) rotate(-45)" fill="#ff5850" fill-rule="evenodd"/>
            <path id="Path_135-2" data-name="Path 135" d="M90.358,127.553l25.914-.015.451-801.261-25.914.015Z" transform="translate(223.426 -6.77) rotate(-45)" fill="#b49a85" fill-rule="evenodd"/>
            <path id="Path_136-2" data-name="Path 136" d="M269.5,124.88l25.914-.015L295.893-722l-25.914.015Z" transform="translate(293.914 112.45) rotate(-45)" fill="#b49a85" fill-rule="evenodd"/>
            <path id="Path_137-2" data-name="Path 137" d="M125.433,152.555l25.914-.015.508-901.289-25.914.015Z" transform="translate(251.393 10.725) rotate(-45)" fill="#50b6ff" fill-rule="evenodd"/>
            <path id="Path_138-2" data-name="Path 138" d="M52.345,126.049l11.92-.007.458-813.181-11.92.007Z" transform="translate(215.519 -40.779) rotate(-45)" fill="#f3c130" fill-rule="evenodd"/>
            <path id="Path_139-2" data-name="Path 139" d="M181.056,135.373l11.92-.007.477-846.869-11.92.007Z" transform="translate(258.537 48.036) rotate(-45)" fill="#ff5850" fill-rule="evenodd"/>
            <path id="Path_140-2" data-name="Path 140" d="M209.016,128.62l11.92-.007.469-832.357-11.92.007Z" transform="translate(266.369 67.952) rotate(-45)" fill="#f3c02f" fill-rule="evenodd"/>
            <path id="Path_141-2" data-name="Path 141" d="M260.831,157.729l11.92-.007.482-855.162-11.92.007Z" transform="translate(269.027 109.781) rotate(-45)" fill="#23db95" fill-rule="evenodd"/>
          </g>
        </g>
        <g id="diagonal-45-style1-10" data-name="diagonal-45-style1" opacity="0.5">
          <g id="Rectangle-10" data-name="Rectangle" transform="translate(720 -120) rotate(180)" opacity="0.7">
            <path id="Path_142-2" data-name="Path 142" d="M-2.682,135.789l25.914-.015.479-850.5-25.914.015Z" transform="translate(207.763 -77.347) rotate(-45)" fill="#ff5850" fill-rule="evenodd"/>
            <path id="Path_143-2" data-name="Path 143" d="M90.358,127.553l25.914-.015.451-801.261-25.914.015Z" transform="translate(223.426 -6.77) rotate(-45)" fill="#b49a85" fill-rule="evenodd"/>
            <path id="Path_144-2" data-name="Path 144" d="M269.5,124.88l25.914-.015L295.893-722l-25.914.015Z" transform="translate(293.914 112.45) rotate(-45)" fill="#b49a85" fill-rule="evenodd"/>
            <path id="Path_145-2" data-name="Path 145" d="M125.433,152.555l25.914-.015.508-901.289-25.914.015Z" transform="translate(251.393 10.725) rotate(-45)" fill="#50b6ff" fill-rule="evenodd"/>
            <path id="Path_146-2" data-name="Path 146" d="M52.345,126.049l11.92-.007.458-813.181-11.92.007Z" transform="translate(215.519 -40.779) rotate(-45)" fill="#f3c130" fill-rule="evenodd"/>
            <path id="Path_147-2" data-name="Path 147" d="M181.056,135.373l11.92-.007.477-846.869-11.92.007Z" transform="translate(258.537 48.036) rotate(-45)" fill="#ff5850" fill-rule="evenodd"/>
            <path id="Path_148-2" data-name="Path 148" d="M209.016,128.62l11.92-.007.469-832.357-11.92.007Z" transform="translate(266.369 67.952) rotate(-45)" fill="#f3c02f" fill-rule="evenodd"/>
            <path id="Path_149-2" data-name="Path 149" d="M260.831,157.729l11.92-.007.482-855.162-11.92.007Z" transform="translate(269.027 109.781) rotate(-45)" fill="#23db95" fill-rule="evenodd"/>
          </g>
        </g>
        <g id="diagonal-45-style1-11" data-name="diagonal-45-style1" opacity="0.5">
          <g id="Rectangle-11" data-name="Rectangle" transform="translate(1098 -120) rotate(180)" opacity="0.7">
            <path id="Path_150-2" data-name="Path 150" d="M-2.682,135.789l25.914-.015.479-850.5-25.914.015Z" transform="translate(207.763 -77.347) rotate(-45)" fill="#ff5850" fill-rule="evenodd"/>
            <path id="Path_151-2" data-name="Path 151" d="M90.358,127.553l25.914-.015.451-801.261-25.914.015Z" transform="translate(223.426 -6.77) rotate(-45)" fill="#b49a85" fill-rule="evenodd"/>
            <path id="Path_152-2" data-name="Path 152" d="M269.5,124.88l25.914-.015L295.893-722l-25.914.015Z" transform="translate(293.914 112.45) rotate(-45)" fill="#b49a85" fill-rule="evenodd"/>
            <path id="Path_153-2" data-name="Path 153" d="M125.433,152.555l25.914-.015.508-901.289-25.914.015Z" transform="translate(251.393 10.725) rotate(-45)" fill="#50b6ff" fill-rule="evenodd"/>
            <path id="Path_154-2" data-name="Path 154" d="M52.345,126.049l11.92-.007.458-813.181-11.92.007Z" transform="translate(215.519 -40.779) rotate(-45)" fill="#f3c130" fill-rule="evenodd"/>
            <path id="Path_155-2" data-name="Path 155" d="M181.056,135.373l11.92-.007.477-846.869-11.92.007Z" transform="translate(258.537 48.036) rotate(-45)" fill="#ff5850" fill-rule="evenodd"/>
            <path id="Path_156-2" data-name="Path 156" d="M209.016,128.62l11.92-.007.469-832.357-11.92.007Z" transform="translate(266.369 67.952) rotate(-45)" fill="#f3c02f" fill-rule="evenodd"/>
            <path id="Path_157-2" data-name="Path 157" d="M260.831,157.729l11.92-.007.482-855.162-11.92.007Z" transform="translate(269.027 109.781) rotate(-45)" fill="#23db95" fill-rule="evenodd"/>
          </g>
        </g>
        <g id="diagonal-45-style1-12" data-name="diagonal-45-style1" opacity="0.5">
          <g id="Rectangle-12" data-name="Rectangle" transform="translate(1460 -120) rotate(180)" opacity="0.7">
            <path id="Path_158-2" data-name="Path 158" d="M-2.682,135.789l25.914-.015.479-850.5-25.914.015Z" transform="translate(207.763 -77.347) rotate(-45)" fill="#ff5850" fill-rule="evenodd"/>
            <path id="Path_159-2" data-name="Path 159" d="M90.358,127.553l25.914-.015.451-801.261-25.914.015Z" transform="translate(223.426 -6.77) rotate(-45)" fill="#b49a85" fill-rule="evenodd"/>
            <path id="Path_160-2" data-name="Path 160" d="M269.5,124.88l25.914-.015L295.893-722l-25.914.015Z" transform="translate(293.914 112.45) rotate(-45)" fill="#b49a85" fill-rule="evenodd"/>
            <path id="Path_161-2" data-name="Path 161" d="M125.433,152.555l25.914-.015.508-901.289-25.914.015Z" transform="translate(251.393 10.725) rotate(-45)" fill="#50b6ff" fill-rule="evenodd"/>
            <path id="Path_162-2" data-name="Path 162" d="M52.345,126.049l11.92-.007.458-813.181-11.92.007Z" transform="translate(215.519 -40.779) rotate(-45)" fill="#f3c130" fill-rule="evenodd"/>
            <path id="Path_163-2" data-name="Path 163" d="M181.056,135.373l11.92-.007.477-846.869-11.92.007Z" transform="translate(258.537 48.036) rotate(-45)" fill="#ff5850" fill-rule="evenodd"/>
            <path id="Path_164-2" data-name="Path 164" d="M209.016,128.62l11.92-.007.469-832.357-11.92.007Z" transform="translate(266.369 67.952) rotate(-45)" fill="#f3c02f" fill-rule="evenodd"/>
            <path id="Path_165-2" data-name="Path 165" d="M260.831,157.729l11.92-.007.482-855.162-11.92.007Z" transform="translate(269.027 109.781) rotate(-45)" fill="#23db95" fill-rule="evenodd"/>
          </g>
        </g>
        <g id="diagonal-45-style1-13" data-name="diagonal-45-style1" opacity="0.7">
          <g id="Rectangle-13" data-name="Rectangle" transform="translate(-121 -112)">
            <path id="Path_166-2" data-name="Path 166" d="M-2.682-135.788l25.914.015.479,850.493L-2.2,714.705Z" transform="translate(207.763 77.347) rotate(45)" fill="#ff5850" fill-rule="evenodd"/>
            <path id="Path_167-2" data-name="Path 167" d="M90.358-127.552l25.914.015.451,801.257L90.809,673.7Z" transform="translate(223.426 6.77) rotate(45)" fill="#b49a85" fill-rule="evenodd"/>
            <path id="Path_168-2" data-name="Path 168" d="M269.5-124.879l25.914.015L295.892,722l-25.914-.015Z" transform="translate(293.914 -112.45) rotate(45)" fill="#b49a85" fill-rule="evenodd"/>
            <path id="Path_169-2" data-name="Path 169" d="M125.432-152.554l25.914.015.508,901.285-25.914-.015Z" transform="translate(251.393 -10.725) rotate(45)" fill="#50b6ff" fill-rule="evenodd"/>
            <path id="Path_170-2" data-name="Path 170" d="M52.345-126.048l11.92.007.458,813.177-11.92-.007Z" transform="translate(215.519 40.779) rotate(45)" fill="#f3c130" fill-rule="evenodd"/>
            <path id="Path_171-2" data-name="Path 171" d="M181.055-135.372l11.92.007.477,846.866-11.92-.007Z" transform="translate(258.537 -48.036) rotate(45)" fill="#ff5850" fill-rule="evenodd"/>
            <path id="Path_172-2" data-name="Path 172" d="M209.015-128.62l11.92.007.469,832.354-11.92-.007Z" transform="translate(266.369 -67.952) rotate(45)" fill="#f3c02f" fill-rule="evenodd"/>
            <path id="Path_173-2" data-name="Path 173" d="M260.83-157.728l11.92.007.482,855.158-11.92-.007Z" transform="translate(269.027 -109.781) rotate(45)" fill="#23db95" fill-rule="evenodd"/>
          </g>
        </g>
        <g id="diagonal-45-style1-14" data-name="diagonal-45-style1" opacity="0.7">
          <g id="Rectangle-14" data-name="Rectangle" transform="translate(227 -112)">
            <path id="Path_174-2" data-name="Path 174" d="M-2.682-135.788l25.914.015.479,850.493L-2.2,714.705Z" transform="translate(207.763 77.347) rotate(45)" fill="#ff5850" fill-rule="evenodd"/>
            <path id="Path_175-2" data-name="Path 175" d="M90.358-127.552l25.914.015.451,801.257L90.809,673.7Z" transform="translate(223.426 6.77) rotate(45)" fill="#b49a85" fill-rule="evenodd"/>
            <path id="Path_176-2" data-name="Path 176" d="M269.5-124.879l25.914.015L295.892,722l-25.914-.015Z" transform="translate(293.914 -112.45) rotate(45)" fill="#b49a85" fill-rule="evenodd"/>
            <path id="Path_177-2" data-name="Path 177" d="M125.432-152.554l25.914.015.508,901.285-25.914-.015Z" transform="translate(251.393 -10.725) rotate(45)" fill="#50b6ff" fill-rule="evenodd"/>
            <path id="Path_178-2" data-name="Path 178" d="M52.345-126.048l11.92.007.458,813.177-11.92-.007Z" transform="translate(215.519 40.779) rotate(45)" fill="#f3c130" fill-rule="evenodd"/>
            <path id="Path_179-2" data-name="Path 179" d="M181.055-135.372l11.92.007.477,846.866-11.92-.007Z" transform="translate(258.537 -48.036) rotate(45)" fill="#ff5850" fill-rule="evenodd"/>
            <path id="Path_180-2" data-name="Path 180" d="M209.015-128.62l11.92.007.469,832.354-11.92-.007Z" transform="translate(266.369 -67.952) rotate(45)" fill="#f3c02f" fill-rule="evenodd"/>
            <path id="Path_181-2" data-name="Path 181" d="M260.83-157.728l11.92.007.482,855.158-11.92-.007Z" transform="translate(269.027 -109.781) rotate(45)" fill="#23db95" fill-rule="evenodd"/>
          </g>
        </g>
        <g id="diagonal-45-style1-15" data-name="diagonal-45-style1" opacity="0.7">
          <g id="Rectangle-15" data-name="Rectangle" transform="translate(548 -94)">
            <path id="Path_182-2" data-name="Path 182" d="M-2.682-135.788l25.914.015.479,850.493L-2.2,714.705Z" transform="translate(207.763 77.347) rotate(45)" fill="#ff5850" fill-rule="evenodd"/>
            <path id="Path_183-2" data-name="Path 183" d="M90.358-127.552l25.914.015.451,801.257L90.809,673.7Z" transform="translate(223.426 6.77) rotate(45)" fill="#b49a85" fill-rule="evenodd"/>
            <path id="Path_184-2" data-name="Path 184" d="M269.5-124.879l25.914.015L295.892,722l-25.914-.015Z" transform="translate(293.914 -112.45) rotate(45)" fill="#b49a85" fill-rule="evenodd"/>
            <path id="Path_185-2" data-name="Path 185" d="M125.432-152.554l25.914.015.508,901.285-25.914-.015Z" transform="translate(251.393 -10.725) rotate(45)" fill="#50b6ff" fill-rule="evenodd"/>
            <path id="Path_186-2" data-name="Path 186" d="M52.345-126.048l11.92.007.458,813.177-11.92-.007Z" transform="translate(215.519 40.779) rotate(45)" fill="#f3c130" fill-rule="evenodd"/>
            <path id="Path_187-2" data-name="Path 187" d="M181.055-135.372l11.92.007.477,846.866-11.92-.007Z" transform="translate(258.537 -48.036) rotate(45)" fill="#ff5850" fill-rule="evenodd"/>
            <path id="Path_188-2" data-name="Path 188" d="M209.015-128.62l11.92.007.469,832.354-11.92-.007Z" transform="translate(266.369 -67.952) rotate(45)" fill="#f3c02f" fill-rule="evenodd"/>
            <path id="Path_189-2" data-name="Path 189" d="M260.83-157.728l11.92.007.482,855.158-11.92-.007Z" transform="translate(269.027 -109.781) rotate(45)" fill="#23db95" fill-rule="evenodd"/>
          </g>
        </g>
        <g id="diagonal-45-style1-16" data-name="diagonal-45-style1" opacity="0.7">
          <g id="Rectangle-16" data-name="Rectangle" transform="translate(897 -87)">
            <path id="Path_190-2" data-name="Path 190" d="M-2.682-135.788l25.914.015.479,850.493L-2.2,714.705Z" transform="translate(207.763 77.347) rotate(45)" fill="#ff5850" fill-rule="evenodd"/>
            <path id="Path_191-2" data-name="Path 191" d="M90.358-127.552l25.914.015.451,801.257L90.809,673.7Z" transform="translate(223.426 6.77) rotate(45)" fill="#b49a85" fill-rule="evenodd"/>
            <path id="Path_192-2" data-name="Path 192" d="M269.5-124.879l25.914.015L295.892,722l-25.914-.015Z" transform="translate(293.914 -112.45) rotate(45)" fill="#b49a85" fill-rule="evenodd"/>
            <path id="Path_193-2" data-name="Path 193" d="M125.432-152.554l25.914.015.508,901.285-25.914-.015Z" transform="translate(251.393 -10.725) rotate(45)" fill="#50b6ff" fill-rule="evenodd"/>
            <path id="Path_194-2" data-name="Path 194" d="M52.345-126.048l11.92.007.458,813.177-11.92-.007Z" transform="translate(215.519 40.779) rotate(45)" fill="#f3c130" fill-rule="evenodd"/>
            <path id="Path_195-2" data-name="Path 195" d="M181.055-135.372l11.92.007.477,846.866-11.92-.007Z" transform="translate(258.537 -48.036) rotate(45)" fill="#ff5850" fill-rule="evenodd"/>
            <path id="Path_196-2" data-name="Path 196" d="M209.015-128.62l11.92.007.469,832.354-11.92-.007Z" transform="translate(266.369 -67.952) rotate(45)" fill="#f3c02f" fill-rule="evenodd"/>
            <path id="Path_197-2" data-name="Path 197" d="M260.83-157.728l11.92.007.482,855.158-11.92-.007Z" transform="translate(269.027 -109.781) rotate(45)" fill="#23db95" fill-rule="evenodd"/>
          </g>
        </g>
      </g>
    </g>
  </g>
</svg>
