<svg xmlns="http://www.w3.org/2000/svg" width="157.372" height="30.275" viewBox="0 0 157.372 30.275">
  <g id="Group_18513" data-name="Group 18513" transform="translate(564.522 -194)">
    <path id="Union_1" data-name="Union 1" d="M21.679,28.574a6.866,6.866,0,1,1,6.865-6.863h-.008a6.859,6.859,0,0,1-6.852,6.863ZM0,28.221V14.9H13.316V28.221Zm15.174-15.18A13.029,13.029,0,0,1,28.189,0V13.041ZM0,13.041V0A13.029,13.029,0,0,1,13.016,13.041Z" transform="translate(-564.522 195.611)" fill="#2b323c"/>
    <path id="Path_23961" data-name="Path 23961" d="M36.517.585l-9.7,23.106L17.063.585H12.891v28.15h3.515V7.28L25.5,28.735h2.533l9-21.455V28.735h3.518V.585Z" transform="translate(-541.278 195.101)" fill="#2b323c"/>
    <path id="Path_23962" data-name="Path 23962" d="M32.716,6.242c-3.662,0-5.867,3.124-5.867,7.577s2.2,7.575,5.867,7.575,5.867-3.121,5.867-7.575-2.2-7.577-5.867-7.577m0,18.183c-5.591,0-9.348-4.363-9.348-10.606S27.12,3.2,32.716,3.2c5.546,0,9.348,4.363,9.348,10.608s-3.8,10.606-9.348,10.606" transform="translate(-522.071 199.831)" fill="#2b323c"/>
    <path id="Path_23963" data-name="Path 23963" d="M45.59,15.522a5.855,5.855,0,0,0-5.225-3.353c-3.9,0-6.2,3.169-6.2,7.484s2.29,7.484,6.2,7.484a5.855,5.855,0,0,0,5.225-3.353Zm0,11.938a7.155,7.155,0,0,1-5.729,2.8c-5.957,0-9.165-4.82-9.165-10.606C30.707,13.91,33.9,9.031,39.861,9.031a7.163,7.163,0,0,1,5.729,2.8V0h3.484V29.844H45.59Z" transform="translate(-508.758 194)" fill="#2b323c"/>
    <path id="Path_23964" data-name="Path 23964" d="M41.619,11.835H52.435A5.116,5.116,0,0,0,47.4,6.143a5.836,5.836,0,0,0-5.774,5.692M55.649,17.9a7.763,7.763,0,0,1-8.2,6.519c-5.546,0-9.348-4.27-9.348-10.56C38.1,7.749,41.808,3.2,47.354,3.2c5.591,0,8.571,4.086,8.571,10.01v1.239h-14.4c.045,4.36,2.473,7.024,5.915,7.024A4.688,4.688,0,0,0,52.392,17.9Z" transform="translate(-495.312 199.84)" fill="#2b323c"/>
    <path id="Path_23965" data-name="Path 23965" d="M55.838,7.072a4.342,4.342,0,0,0-2.29-.564,4.928,4.928,0,0,0-4.721,3.81V24H45.391V3.629h3.436V6.29A5.68,5.68,0,0,1,53.866,3.2a4.951,4.951,0,0,1,1.972.322Z" transform="translate(-482.063 199.828)" fill="#2b323c"/>
    <path id="Path_23966" data-name="Path 23966" d="M49.968,3.637H53.4V6.208a7.6,7.6,0,0,1,6.005-3,6.728,6.728,0,0,1,7.149,7.45V24.024H63.074V11.214a4.23,4.23,0,0,0-4.49-4.823A5.525,5.525,0,0,0,53.4,10.2V24.032H49.968Z" transform="translate(-473.748 199.82)" fill="#2b323c"/>
  </g>
</svg>
