<svg xmlns="http://www.w3.org/2000/svg" width="234.06" height="45.028" viewBox="0 0 234.06 45.028">
  <g id="Group_9183" data-name="Group 9183" transform="translate(564.522 -194)">
    <path id="Union_1" data-name="Union 1" d="M32.243,42.5A10.212,10.212,0,1,1,42.453,32.29H42.44A10.2,10.2,0,0,1,32.249,42.5ZM0,41.973V22.164H19.8V41.973ZM22.568,19.4A19.377,19.377,0,0,1,41.926,0V19.4ZM0,19.4V0A19.377,19.377,0,0,1,19.358,19.4Z" transform="translate(-564.522 196.397)" fill="#2b323c"/>
    <path id="Path_23961" data-name="Path 23961" d="M48.03.585,33.6,34.95,19.1.585H12.891V42.452H18.12V10.543l13.526,31.91h3.767L48.8,10.543v31.91H54.03V.585Z" transform="translate(-523.669 195.922)" fill="#2b323c"/>
    <path id="Path_23962" data-name="Path 23962" d="M37.272,7.725c-5.446,0-8.726,4.646-8.726,11.27S31.818,30.26,37.272,30.26,46,25.618,46,18.995s-3.272-11.27-8.726-11.27m0,27.044c-8.316,0-13.9-6.489-13.9-15.774S28.948,3.2,37.272,3.2c8.249,0,13.9,6.489,13.9,15.778s-5.655,15.774-13.9,15.774" transform="translate(-489.997 204.232)" fill="#2b323c"/>
    <path id="Path_23963" data-name="Path 23963" d="M52.848,23.086A8.708,8.708,0,0,0,45.078,18.1c-5.794,0-9.216,4.714-9.216,11.131s3.406,11.131,9.216,11.131a8.708,8.708,0,0,0,7.771-4.986Zm0,17.755A10.642,10.642,0,0,1,44.328,45C35.467,45,30.7,37.835,30.7,29.23c.017-8.542,4.771-15.8,13.632-15.8A10.654,10.654,0,0,1,52.848,17.6V0H58.03V44.387H52.848Z" transform="translate(-466.627 194)" fill="#2b323c"/>
    <path id="Path_23964" data-name="Path 23964" d="M43.334,16.041H59.421a7.609,7.609,0,0,0-7.49-8.466,8.68,8.68,0,0,0-8.588,8.466M64.2,25.057a11.546,11.546,0,0,1-12.2,9.7c-8.249,0-13.9-6.351-13.9-15.707C38.1,9.963,43.615,3.2,51.864,3.2c8.316,0,12.748,6.078,12.748,14.888v1.843H43.2c.067,6.485,3.678,10.447,8.8,10.447a6.972,6.972,0,0,0,7.36-5.326Z" transform="translate(-443.02 204.248)" fill="#2b323c"/>
    <path id="Path_23965" data-name="Path 23965" d="M60.929,8.959a6.458,6.458,0,0,0-3.406-.839A7.33,7.33,0,0,0,50.5,13.786V34.139H45.391V3.839H50.5V7.8A8.448,8.448,0,0,1,58,3.2a7.364,7.364,0,0,1,2.932.478Z" transform="translate(-419.762 204.227)" fill="#2b323c"/>
    <path id="Path_23966" data-name="Path 23966" d="M49.968,3.852h5.111V7.676A11.3,11.3,0,0,1,64.01,3.219,10.006,10.006,0,0,1,74.642,14.3V34.174H69.46V15.122a6.291,6.291,0,0,0-6.678-7.173,8.217,8.217,0,0,0-7.7,5.671V34.187H49.968Z" transform="translate(-405.165 204.213)" fill="#2b323c"/>
  </g>
</svg>
